# xmcd
#
# Track frame offsets:
# 150
# 17385
# 37200
# 59989
# 78142
# 98865
# 118790
# 138152
# 158927
# 178137
# 195177
# 216897
# 229765
# 247932
# 271155
# 289797
# 306085
# 325922
#
# Disc length: 4582 seconds
#
# Revision: 0
# Processed by: cddbd v1.4PL0 Copyright (c) Steve Scherf et al.
# Submitted via: plextools 2.04
#
DISCID=fa11e412
DTITLE=Lisa Nilsson - LISA NILSSON   SAMLADE SÅNGER 1992 - 2003 - CD 1
DYEAR=2003
DGENRE=Pop
TTITLE0=Lisa Nilsson - Den Här Gången
TTITLE1=Lisa Nilsson - Tror På Dig
TTITLE2=Lisa Nilsson - Himmlen Runt Hörnet
TTITLE3=Lisa Nilsson - Mysteriet Deg
TTITLE4=Lisa Nilsson - Ändå Faller Regnet
TTITLE5=Lisa Nilsson - Långsamt Farväl
TTITLE6=Lisa Nilsson - Ensam Med Dig
TTITLE7=Lisa Nilsson - Allt Jag Behöver
TTITLE8=Lisa Nilsson - Vad Du Ser Är Vad Du Får
TTITLE9=Lisa Nilsson - Varje Gång Jag Ser Dig
TTITLE10=Lisa Nilsson - Långsamt
TTITLE11=Lisa Nilsson - Vem
TTITLE12=Lisa Nilsson - Säg Det Igen
TTITLE13=Lisa Nilsson - If I Could Help Somebody - A Change Is Gonna Come
TTITLE14=Lisa Nilsson - Rising To The Top
TTITLE15=Lisa Nilsson - Handens Fem Fingrar
TTITLE16=Lisa Nilsson - Det Är Bara Ord
TTITLE17=Lisa Nilsson - En Kort En Lång
EXTD=
EXTT0=from the album "Till Morelia", 1995
EXTT1=from the album "Viva", 2000
EXTT2=from the album "Himmlen Runt Hörnet", 1992
EXTT3=from the album "Himmlen Runt Hörnet", 1992
EXTT4=from the album "Himmlen Runt Hörnet", 1992
EXTT5=2003
EXTT6=from the album "Till Morelia", 1995
EXTT7=from the album "Himmlen Runt Hörnet", 1992
EXTT8=from the album "Till Morelia", 1995
EXTT9=from the album "Himmlen Runt Hörnet", 1992
EXTT10=from the album "Viva", 2000
EXTT11=from the album "Himmlen Runt Hörnet", 1992
EXTT12=from the album "Små Rum", 2001
EXTT13=for Amnesty, 1998
EXTT14=from the Blacknuss album "Made In Sweden", 1995
EXTT15=from the album "Till Morelia", 1995
EXTT16=from the album "Små Rum", 2001
EXTT17=2001
PLAYORDER=
